<svg width="71" height="71" viewBox="0 0 71 71" fill="none" xmlns="http://www.w3.org/2000/svg">
<rect y="35.3553" width="50" height="50" rx="10" transform="rotate(-45 0 35.3553)" fill="#3B82F6"/>
<path d="M34.2226 26.0762C34.132 26.0263 34.0284 26 33.9228 26C33.8173 26 33.7137 26.0263 33.623 26.0762C33.5483 26.1308 33.4978 26.2087 33.4813 26.2952C33.4647 26.3817 33.4831 26.4709 33.5331 26.5457C35.3768 29.487 35.7666 33.4916 33.2483 35.701C32.2794 34.951 31.5102 34.0062 30.9998 32.9393C30.0686 33.4157 29.2968 34.1181 28.7683 34.9702C28.2398 35.8222 27.9747 36.7914 28.0019 37.7724C28.0399 38.6372 28.2653 39.4863 28.6649 40.2697C29.0644 41.0531 29.63 41.7548 30.3283 42.3339C31.0267 42.9129 31.8437 43.3574 32.7313 43.6412C33.6189 43.925 34.5592 44.0424 35.4967 43.9864C40.3234 43.9864 42.8267 41.2247 42.9916 37.7724C43.1865 33.6297 39.9936 28.5342 34.2226 26.0762Z" fill="white" stroke="white" stroke-width="2" stroke-linecap="round" stroke-linejoin="round"/>
</svg>
