<svg width="71" height="71" viewBox="0 0 71 71" fill="none" xmlns="http://www.w3.org/2000/svg">
<rect y="35.3553" width="50" height="50" rx="10" transform="rotate(-45 0 35.3553)" fill="#3B82F6"/>
<path d="M36.16 27.4279L38.2442 31.8155C38.2916 31.9268 38.3661 32.0233 38.4604 32.0952C38.5547 32.1672 38.6655 32.2121 38.7816 32.2255L43.3824 32.9363C43.5157 32.9541 43.6413 33.0111 43.7446 33.1007C43.8478 33.1902 43.9247 33.3085 43.9658 33.4417C44.0071 33.575 44.011 33.7178 43.9774 33.8534C43.9438 33.989 43.8738 34.1118 43.7756 34.2074L40.4593 37.6382C40.3748 37.7207 40.3112 37.8239 40.2747 37.9385C40.238 38.0531 40.2294 38.1754 40.2496 38.2943L41.0492 43.1192C41.0724 43.2579 41.0577 43.4005 41.007 43.5309C40.9563 43.6613 40.8715 43.7742 40.7621 43.8569C40.6529 43.9394 40.5236 43.9884 40.389 43.9982C40.2543 44.0079 40.1197 43.9781 40.0006 43.912L35.8585 41.6293C35.7525 41.5751 35.6359 41.5469 35.5177 41.5469C35.3996 41.5469 35.283 41.5751 35.1769 41.6293L31.0349 43.912C30.9157 43.9781 30.7811 44.0079 30.6465 43.9982C30.5119 43.9884 30.3826 43.9394 30.2733 43.8569C30.164 43.7742 30.0792 43.6613 30.0285 43.5309C29.9777 43.4005 29.9631 43.2579 29.9862 43.1192L30.7858 38.2396C30.8061 38.1207 30.7975 37.9984 30.7609 37.8838C30.7242 37.7692 30.6607 37.666 30.5761 37.5835L27.2205 34.2074C27.1212 34.1092 27.0514 33.983 27.0195 33.8442C26.9876 33.7053 26.995 33.5599 27.0408 33.4253C27.0865 33.2908 27.1687 33.173 27.2774 33.0862C27.3861 32.9994 27.5166 32.9473 27.653 32.9363L32.2539 32.2255C32.37 32.2121 32.4807 32.1672 32.575 32.0952C32.6693 32.0233 32.7439 31.9268 32.7913 31.8155L34.8754 27.4279C34.9322 27.3001 35.0228 27.1919 35.1366 27.1161C35.2504 27.0403 35.3827 27 35.5177 27C35.6528 27 35.785 27.0403 35.8988 27.1161C36.0126 27.1919 36.1033 27.3001 36.16 27.4279Z" fill="white" stroke="white" stroke-width="2" stroke-linecap="round" stroke-linejoin="round"/>
</svg>
