<svg width="current" height="current" viewBox="0 0 95 95" fill="current" xmlns="http://www.w3.org/2000/svg">
<path d="M38.7445 31.5237C44.5748 31.5237 49.5352 30.2414 52.5348 28.2016V32.1799H55.5992V23.4243C55.5992 18.8071 48.3531 15.3252 38.7445 15.3252C29.1358 15.3252 21.8897 18.8071 21.8897 23.4243V56.2586C21.8897 60.4614 27.8829 63.7633 36.464 64.2881L36.6515 61.2295C29.6546 60.801 24.9542 58.3136 24.9542 56.2586V50.0932C27.5328 51.8449 31.5775 53.0437 36.4601 53.3432L36.6476 50.2846C29.6527 49.8557 24.9542 47.3679 24.9542 45.3139V39.1325C27.6983 40.9992 32.0892 42.2433 37.3189 42.4414L37.4347 39.3789C30.0797 39.1006 24.9542 36.5149 24.9542 34.3691V28.2016C27.9539 30.2414 32.9142 31.5237 38.7445 31.5237ZM38.7445 18.3896C47.2887 18.3896 52.5348 21.322 52.5348 23.4243C52.5348 25.5267 47.2887 28.4591 38.7445 28.4591C30.2003 28.4591 24.9542 25.5267 24.9542 23.4243C24.9542 21.322 30.2003 18.3896 38.7445 18.3896Z" fill="black"/>
<path d="M16.2206 15.9806C24.4295 7.7712 35.5443 3.18478 47.515 3.06759C59.3023 2.95992 68.4149 6.21395 77.1527 13.6442C77.8595 14.2453 79.5533 15.9421 81.0934 17.5144H73.7669V20.5788H84.712C85.5582 20.5788 86.2445 19.893 86.2445 19.0466V8.10177H83.1798V15.2649C81.6766 13.7312 79.9388 11.9915 79.1378 11.31C69.9244 3.47408 59.8668 -0.121621 47.4852 0.00313507C34.7064 0.128379 22.8334 5.03329 14.0538 13.8139C4.96494 22.9011 -0.0257788 34.8664 0.000100141 47.5056C0.0132837 54.0431 1.4896 60.7202 4.26768 66.8154L7.05698 65.5444C4.45738 59.8433 3.07676 53.6036 3.0648 47.4995C3.04063 35.6809 7.71348 24.4873 16.2206 15.9806Z" fill="black"/>
<path d="M90.7325 28.1848L87.9432 29.4557C90.5428 35.1567 91.9234 41.3965 91.9354 47.5005C91.9596 59.3191 87.2867 70.5128 78.7796 79.0195C70.5707 87.229 59.4559 91.8152 47.4852 91.9323C47.2836 91.9344 47.0841 91.9354 46.8846 91.9354C35.4137 91.9354 26.4357 88.6589 17.8475 81.3557C17.1417 80.7555 15.4508 79.0619 13.9122 77.4912H21.2333V74.4267H10.2882C9.442 74.4267 8.75572 75.1125 8.75572 75.959V86.9038H11.8204V79.7353C13.3236 81.2689 15.0614 83.0085 15.8624 83.6902C24.9254 91.3977 34.8053 95 46.9095 95C47.1109 95 47.3126 94.999 47.515 94.9969C60.2938 94.8718 72.1669 89.9668 80.9464 81.1862C90.0353 72.0988 95.026 60.1336 95.0001 47.4946C94.9869 40.957 93.5106 34.2798 90.7325 28.1848Z" fill="black"/>
<path d="M58.4444 75.3021C68.0528 75.3021 75.2992 71.82 75.2992 67.2028V45.3139C75.2992 40.6966 68.0528 37.2147 58.4444 37.2147C48.8358 37.2147 41.5894 40.6966 41.5894 45.3139V67.2028C41.5894 71.82 48.8358 75.3021 58.4444 75.3021ZM58.4444 40.2791C66.9884 40.2791 72.2347 43.2115 72.2347 45.3139C72.2347 47.4162 66.9884 50.3486 58.4444 50.3486C49.9002 50.3486 44.6539 47.4162 44.6539 45.3139C44.6539 43.2115 49.9002 40.2791 58.4444 40.2791ZM44.6539 50.0913C47.6537 52.131 52.6141 53.4131 58.4444 53.4131C64.2745 53.4131 69.235 52.131 72.2347 50.0913V56.2586C72.2347 58.3611 66.9884 61.2928 58.4444 61.2928C49.9002 61.2928 44.6539 58.3611 44.6539 56.2586V50.0913ZM44.6539 61.0356C47.6537 63.0754 52.6141 64.3574 58.4444 64.3574C64.2745 64.3574 69.235 63.0754 72.2347 61.0356V67.2028C72.2347 69.3051 66.9884 72.2375 58.4444 72.2375C49.9002 72.2375 44.6539 69.3051 44.6539 67.2028V61.0356Z" fill="black"/>
</svg>
