<svg width="current" height="current" viewBox="0 0 64 64" fill="none" xmlns="http://www.w3.org/2000/svg">
<path d="M17.46 24.45C13.09 24.45 9.54001 28 9.54001 32.37C9.54001 36.74 13.09 40.29 17.46 40.29C21.83 40.29 25.38 36.74 25.38 32.37C25.38 28 21.82 24.45 17.46 24.45ZM17.46 39.29C13.64 39.29 10.53 36.18 10.53 32.36C10.53 28.54 13.64 25.43 17.46 25.43C21.28 25.43 24.39 28.54 24.39 32.36C24.39 36.18 21.28 39.29 17.46 39.29Z" fill="black"/>
<path d="M47.41 18.76H61.72C62.95 18.76 63.94 17.76 63.94 16.54V2.22C63.94 0.99 62.94 0 61.72 0H47.41C46.18 0 45.19 1 45.19 2.22V8.88H42.45C40.94 8.88 39.72 10.11 39.72 11.61V31.5H34.92V29.8C34.92 29.43 34.62 29.13 34.25 29.13H31.65C31.28 27.52 30.65 26 29.78 24.61L31.62 22.77C31.88 22.51 31.88 22.08 31.62 21.82L28 18.2C27.74 17.94 27.31 17.94 27.05 18.2L25.22 20.03C23.82 19.15 22.3 18.52 20.7 18.16V15.56C20.7 15.19 20.4 14.89 20.02 14.89H14.91C14.54 14.89 14.24 15.19 14.24 15.56V18.16C12.63 18.52 11.11 19.15 9.72 20.03L7.87 18.21C7.61 17.95 7.18 17.95 6.92 18.21L3.3 21.83C3.05 22.09 3.05 22.51 3.3 22.78L5.14 24.61C4.26 26 3.63 27.52 3.26 29.13H0.67C0.3 29.13 0 29.43 0 29.8V34.91C0 35.28 0.3 35.58 0.67 35.58H3.27C3.63 37.19 4.26 38.71 5.14 40.1L3.3 41.94C3.05 42.2 3.05 42.62 3.3 42.89L6.92 46.51C7.18 46.77 7.61 46.77 7.87 46.51L9.71 44.68C11.1 45.56 12.63 46.19 14.23 46.55V49.15C14.23 49.52 14.53 49.82 14.9 49.82H20.01C20.38 49.82 20.69 49.52 20.69 49.15V46.55C22.3 46.19 23.81 45.56 25.21 44.68L27.04 46.51C27.3 46.77 27.73 46.77 27.99 46.51L31.61 42.89C31.87 42.63 31.87 42.2 31.61 41.94L29.77 40.1C30.65 38.71 31.28 37.19 31.64 35.58H34.24C34.61 35.58 34.91 35.28 34.91 34.91V32.49H39.71V52.38C39.71 53.89 40.94 55.11 42.44 55.11H45.18V61.77C45.18 63 46.18 63.99 47.4 63.99H61.71C62.94 63.99 63.93 62.99 63.93 61.77V47.46C63.93 46.23 62.93 45.24 61.71 45.24H47.41C46.18 45.24 45.19 46.24 45.19 47.46V54.12H42.45C41.49 54.12 40.7 53.34 40.7 52.37V32.49H45.18V39.15C45.18 40.38 46.18 41.37 47.4 41.37H61.71C62.94 41.37 63.93 40.37 63.93 39.15V24.84C63.93 23.61 62.93 22.62 61.71 22.62H47.41C46.18 22.62 45.19 23.62 45.19 24.84V31.5H40.71V11.62C40.71 10.66 41.49 9.87 42.46 9.87H45.2V16.53C45.19 17.76 46.18 18.76 47.41 18.76ZM46.17 2.22C46.17 1.54 46.73 0.98 47.41 0.98H61.72C62.4 0.98 62.96 1.54 62.96 2.22V16.53C62.96 17.21 62.4 17.77 61.72 17.77H47.41C46.73 17.77 46.17 17.21 46.17 16.53V2.22ZM33.93 34.61H31.39C31.07 34.61 30.8 34.84 30.74 35.14C30.39 36.8 29.74 38.37 28.81 39.79C28.64 40.06 28.68 40.4 28.9 40.63L30.69 42.42L27.52 45.59L25.73 43.8C25.51 43.57 25.15 43.54 24.89 43.71C23.47 44.64 21.9 45.29 20.24 45.64C19.93 45.71 19.71 45.98 19.71 46.3V48.84H15.22V46.3C15.22 45.99 15 45.71 14.69 45.64C13.02 45.29 11.46 44.65 10.04 43.72C9.77 43.54 9.42 43.58 9.2 43.8L7.4 45.59L4.23 42.42L6.03 40.62C6.25 40.4 6.29 40.04 6.11 39.78C5.18 38.36 4.53 36.8 4.19 35.13C4.12 34.82 3.85 34.6 3.54 34.6H0.98V30.11H3.52C3.83 30.11 4.11 29.89 4.18 29.57C4.53 27.9 5.17 26.34 6.1 24.92C6.27 24.66 6.24 24.3 6.02 24.08L4.22 22.29L7.39 19.12L9.18 20.91C9.4 21.13 9.76 21.17 10.02 21C11.44 20.07 13.01 19.42 14.67 19.08C14.98 19.01 15.2 18.74 15.2 18.42V15.88H19.69V18.42C19.69 18.74 19.91 19.01 20.22 19.08C21.88 19.43 23.45 20.07 24.87 21C25.13 21.18 25.49 21.14 25.71 20.92L27.5 19.13L30.67 22.3L28.87 24.1C28.65 24.32 28.61 24.67 28.79 24.94C29.72 26.36 30.37 27.92 30.72 29.58C30.78 29.89 31.06 30.12 31.38 30.12H33.92V34.61H33.93ZM46.17 47.46C46.17 46.78 46.73 46.22 47.41 46.22H61.72C62.4 46.22 62.96 46.78 62.96 47.46V61.77C62.96 62.45 62.4 63.01 61.72 63.01H47.41C46.73 63.01 46.17 62.45 46.17 61.77V47.46ZM46.17 24.84C46.17 24.16 46.73 23.6 47.41 23.6H61.72C62.4 23.6 62.96 24.16 62.96 24.84V39.15C62.96 39.83 62.4 40.39 61.72 40.39H47.41C46.73 40.39 46.17 39.83 46.17 39.15V24.84Z" fill="black"/>
<path d="M53.38 35.74C53.47 35.83 53.6 35.88 53.73 35.88C53.75 35.88 53.76 35.88 53.78 35.88C53.93 35.86 54.06 35.78 54.14 35.66L58.51 28.88C58.66 28.65 58.59 28.35 58.36 28.2C58.13 28.05 57.83 28.12 57.68 28.35L53.65 34.62L51.4 32.37C51.21 32.18 50.9 32.18 50.7 32.37C50.51 32.56 50.51 32.87 50.7 33.07L53.38 35.74Z" fill="black"/>
<path d="M53.38 13.12C53.47 13.21 53.6 13.26 53.73 13.26C53.75 13.26 53.76 13.26 53.78 13.26C53.93 13.24 54.06 13.16 54.14 13.04L58.51 6.26C58.66 6.03 58.59 5.73 58.36 5.58C58.13 5.43 57.83 5.5 57.68 5.73L53.65 12L51.4 9.75C51.21 9.56 50.9 9.56 50.7 9.75C50.51 9.94 50.51 10.25 50.7 10.45L53.38 13.12Z" fill="black"/>
<path d="M53.38 58.36C53.47 58.45 53.6 58.5 53.73 58.5C53.75 58.5 53.76 58.5 53.78 58.5C53.93 58.48 54.06 58.4 54.14 58.28L58.51 51.5C58.66 51.27 58.59 50.97 58.36 50.82C58.13 50.67 57.83 50.74 57.68 50.97L53.65 57.24L51.4 54.99C51.21 54.8 50.9 54.8 50.7 54.99C50.51 55.18 50.51 55.49 50.7 55.69L53.38 58.36Z" fill="black"/>
</svg>
