<svg width="current" height="current" viewBox="0 0 66 90" fill="none" xmlns="http://www.w3.org/2000/svg">
<path d="M61.78 12.72H51.58V9.4C51.58 8.71 51.02 8.15 50.33 8.15H38.71V5.44C38.71 2.44 36.27 0 33.27 0C30.27 0 27.83 2.44 27.83 5.44V8.15H16.21C15.52 8.15 14.96 8.71 14.96 9.4V12.72H4.21C1.89 12.72 0 14.61 0 16.93V85.8C0 88.12 1.89 90.01 4.21 90.01H61.76C64.08 90.01 65.97 88.12 65.97 85.8V16.93C65.97 14.61 64.08 12.72 61.76 12.72H61.78ZM17.47 10.65H29.09C29.78 10.65 30.34 10.09 30.34 9.4V5.44C30.34 3.82 31.66 2.49 33.29 2.49C34.92 2.49 36.24 3.81 36.24 5.44V9.4C36.24 10.09 36.8 10.65 37.49 10.65H49.11V17.1H17.49V10.65H17.47ZM63.51 85.8C63.51 86.75 62.74 87.52 61.79 87.52H4.22C3.27 87.52 2.5 86.75 2.5 85.8V16.93C2.5 15.98 3.27 15.21 4.22 15.21H14.97V18.34C14.97 19.03 15.53 19.59 16.22 19.59H50.34C51.03 19.59 51.59 19.03 51.59 18.34V15.21H61.79C62.74 15.21 63.51 15.98 63.51 16.93V85.8Z" fill="black"/>
<path d="M55.01 34.79H11.35C10.66 34.79 10.1 35.35 10.1 36.04C10.1 36.73 10.66 37.29 11.35 37.29H55.01C55.7 37.29 56.26 36.73 56.26 36.04C56.26 35.35 55.7 34.79 55.01 34.79Z" fill="black"/>
<path d="M55.01 51.46H11.35C10.66 51.46 10.1 52.02 10.1 52.71C10.1 53.4 10.66 53.96 11.35 53.96H55.01C55.7 53.96 56.26 53.4 56.26 52.71C56.26 52.02 55.7 51.46 55.01 51.46Z" fill="black"/>
<path d="M21.84 68.12H11.35C10.66 68.12 10.1 68.68 10.1 69.37C10.1 70.06 10.66 70.62 11.35 70.62H21.84C22.53 70.62 23.09 70.06 23.09 69.37C23.09 68.68 22.53 68.12 21.84 68.12Z" fill="black"/>
<path d="M54.16 63.22L38.83 77.51L32.26 71.37C31.76 70.9 30.97 70.93 30.5 71.43C30.03 71.93 30.06 72.72 30.56 73.19L37.98 80.12C38.22 80.34 38.52 80.46 38.83 80.46C39.14 80.46 39.44 80.35 39.68 80.13L55.86 65.05C56.36 64.58 56.39 63.79 55.92 63.29C55.45 62.79 54.66 62.76 54.16 63.23V63.22Z" fill="black"/>
</svg>
