<svg width="current" height="current" viewBox="0 0 82 81" fill="none" xmlns="http://www.w3.org/2000/svg">
<path d="M23.19 67.3541C23.3755 67.5284 23.6204 67.6255 23.875 67.6255C24.1296 67.6255 24.3745 67.5284 24.56 67.3541C26.2 65.8007 27.73 64.2674 29.15 62.7541C32.8874 65.6963 37.4169 67.458 42.1601 67.8142C46.9033 68.1705 51.6451 67.1051 55.78 64.7541L70.53 79.4741C71.1209 80.065 71.8225 80.5338 72.5946 80.8536C73.3667 81.1734 74.1943 81.338 75.03 81.338C75.8657 81.338 76.6933 81.1734 77.4654 80.8536C78.2375 80.5338 78.9391 80.065 79.53 79.4741C80.1209 78.8831 80.5897 78.1816 80.9095 77.4094C81.2293 76.6373 81.394 75.8098 81.394 74.9741C81.394 74.1383 81.2293 73.3108 80.9095 72.5387C80.5897 71.7666 80.1209 71.065 79.53 70.4741L64.76 55.7441C66.6944 52.3657 67.7739 48.5658 67.9045 44.675C68.0351 40.7842 67.2129 36.9204 65.5095 33.4199C63.8061 29.9194 61.273 26.8882 58.1307 24.5901C54.9884 22.292 51.3321 20.7966 47.48 20.2341C46.5618 14.2908 43.4351 8.9128 38.7244 5.17449C34.0137 1.43618 28.066 -0.387155 22.0696 0.0687681C16.0731 0.524691 10.4694 3.2263 6.37811 7.63384C2.28678 12.0414 0.00905925 17.8303 0 23.8441C0 23.8441 1.49012e-07 24.6241 0.0900002 25.9441C0.72 35.4641 5.24 50.3841 23.19 67.3541ZM78.1 71.9041C78.8585 72.7324 79.268 73.8215 79.2433 74.9444C79.2186 76.0672 78.7615 77.1372 77.9673 77.9314C77.1732 78.7256 76.1032 79.1827 74.9803 79.2074C73.8574 79.2321 72.7684 78.8225 71.94 78.0641L57.52 63.6441C59.9417 61.9955 62.0315 59.9058 63.68 57.4841L78.1 71.9041ZM59.48 28.3641C63.0902 31.954 65.3435 36.685 65.8558 41.7505C66.368 46.8159 65.1076 51.9022 62.2892 56.1423C59.4709 60.3824 55.2692 63.5137 50.4004 65.0025C45.5317 66.4912 40.2973 66.2452 35.5896 64.3064C30.8819 62.3676 26.9924 58.856 24.5842 54.3703C22.1759 49.8846 21.398 44.7025 22.3831 39.7074C23.3682 34.7123 26.0553 30.2135 29.9863 26.978C33.9172 23.7424 38.8487 21.9704 43.94 21.9641C49.7628 21.9568 55.3511 24.2583 59.48 28.3641ZM20.85 37.5341C18.5084 36.995 16.3524 35.8426 14.6034 34.195C12.8543 32.5475 11.5752 30.4641 10.8974 28.1589C10.2195 25.8536 10.1673 23.4095 10.7461 21.0775C11.325 18.7454 12.514 16.6093 14.1911 14.8886C15.8682 13.1679 17.973 11.9244 20.2895 11.2859C22.6059 10.6474 25.0506 10.6369 27.3724 11.2553C29.6943 11.8738 31.8098 13.099 33.5017 14.8052C35.1936 16.5114 36.401 18.6371 37 20.9641C33.124 22.1302 29.6082 24.2628 26.783 27.1614C23.9579 30.06 21.9162 33.6294 20.85 37.5341ZM23.85 1.96407C28.9896 1.96774 33.9646 3.77734 37.9055 7.07665C41.8464 10.376 44.5026 14.9552 45.41 20.0141C43.2349 19.8787 41.0515 20.0402 38.92 20.4941C38.2358 17.8211 36.8523 15.3786 34.9116 13.4173C32.9709 11.4561 30.5431 10.0469 27.8775 9.33454C25.212 8.62219 22.4048 8.63236 19.7445 9.36402C17.0842 10.0957 14.6666 11.5224 12.7402 13.4977C10.8138 15.473 9.44804 17.9255 8.78324 20.6033C8.11843 23.2811 8.17855 26.0877 8.95744 28.7345C9.73632 31.3814 11.2059 33.7732 13.2151 35.6642C15.2243 37.5551 17.7008 38.877 20.39 39.4941C19.6755 43.3236 19.904 47.2694 21.0556 50.9909C22.2072 54.7123 24.2474 58.0975 27 60.8541C27.21 61.0641 27.43 61.2441 27.65 61.4441C26.47 62.6974 25.2167 63.9674 23.89 65.2541C7 48.9641 2.69 34.8541 2.09 25.8041C2 24.5641 2 23.8041 2 23.8041C2.01587 18.0097 4.32745 12.4578 8.42845 8.36426C12.5295 4.27075 18.0856 1.96934 23.88 1.96407H23.85Z" fill="black"/>
<path d="M31.75 56.1041C34.1622 58.5173 37.2358 60.1609 40.5822 60.8271C43.9286 61.4933 47.3973 61.1521 50.5498 59.8467C53.7022 58.5413 56.3967 56.3304 58.2925 53.4934C60.1883 50.6565 61.2002 47.3211 61.2002 43.9091C61.2002 40.4971 60.1883 37.1617 58.2925 34.3247C56.3967 31.4878 53.7022 29.2769 50.5498 27.9715C47.3973 26.6661 43.9286 26.3249 40.5822 26.9911C37.2358 27.6573 34.1622 29.3009 31.75 31.7141C30.1418 33.3118 28.8655 35.2118 27.9945 37.3047C27.1236 39.3976 26.6752 41.6422 26.6752 43.9091C26.6752 46.176 27.1236 48.4205 27.9945 50.5135C28.8655 52.6064 30.1418 54.5064 31.75 56.1041ZM43.94 28.6641C47.4658 28.6658 50.8819 29.8899 53.6063 32.1279C56.3307 34.3659 58.1948 37.4793 58.8811 40.9376C59.5674 44.396 59.0334 47.9852 57.37 51.094C55.7066 54.2027 53.0168 56.6385 49.7589 57.9864C46.501 59.3343 42.8764 59.5109 39.5029 58.4861C36.1294 57.4613 33.2155 55.2985 31.2578 52.3662C29.3001 49.4339 28.4197 45.9135 28.7665 42.4049C29.1134 38.8962 30.6661 35.6163 33.16 33.1241C34.5743 31.7069 36.2547 30.5833 38.1048 29.8179C39.9548 29.0525 41.9379 28.6604 43.94 28.6641Z" fill="black"/>
</svg>
